<?xml version="1.0" encoding="UTF-8" standalone="no"?>
<!DOCTYPE svg PUBLIC "-//W3C//DTD SVG 1.1//EN"
 "http://www.w3.org/Graphics/SVG/1.1/DTD/svg11.dtd">
<!-- Generated by graphviz version 8.0.5 (20230430.1635)
 -->
<!-- Title: G Pages: 1 -->
<svg width="1536pt" height="1785pt"
 viewBox="0.00 0.00 1536.00 1785.00" xmlns="http://www.w3.org/2000/svg" xmlns:xlink="http://www.w3.org/1999/xlink">
<g id="graph0" class="graph" transform="scale(1 1) rotate(0) translate(4 1781)">
<title>G</title>
<polygon fill="white" stroke="none" points="-4,4 -4,-1781 1532,-1781 1532,4 -4,4"/>
<!-- v0 -->
<g id="node1" class="node">
<title>v0</title>
<polygon fill="#e6e6e6" stroke="black" points="1066.26,-1010.79 1066.26,-1059.79 1154.26,-1059.79 1154.26,-1010.79 1066.26,-1010.79"/>
<text text-anchor="middle" x="1110.26" y="-1042.49" font-family="Times,serif" font-size="14.00">Immingham</text>
<polyline fill="none" stroke="black" points="1066.26,-1035.29 1154.26,-1035.29"/>
<text text-anchor="middle" x="1110.26" y="-1017.99" font-family="Times,serif" font-size="14.00">distance: 399</text>
</g>
<!-- v10 -->
<g id="node11" class="node">
<title>v10</title>
<polygon fill="#e6e6e6" stroke="black" points="895.28,-874.95 895.28,-923.95 1005.78,-923.95 1005.78,-874.95 895.28,-874.95"/>
<text text-anchor="middle" x="950.53" y="-906.65" font-family="Times,serif" font-size="14.00">X: E22 x E15 (0)</text>
<polyline fill="none" stroke="black" points="895.28,-899.45 1005.78,-899.45"/>
<text text-anchor="middle" x="950.53" y="-882.15" font-family="Times,serif" font-size="14.00">distance: 347</text>
</g>
<!-- v0&#45;&#45;v10 -->
<g id="edge1" class="edge">
<title>v0&#45;&#45;v10</title>
<path fill="none" stroke="black" d="M1081.7,-1011C1052.72,-986.36 1008.1,-948.41 979.11,-923.76"/>
<text text-anchor="middle" x="1010.91" y="-970.58" font-family="Times,serif" font-size="14.00">, 52km</text>
</g>
<!-- v1 -->
<g id="node2" class="node">
<title>v1</title>
<polygon fill="#e6e6e6" stroke="black" points="1166.25,-753.15 1166.25,-802.15 1254.25,-802.15 1254.25,-753.15 1166.25,-753.15"/>
<text text-anchor="middle" x="1210.25" y="-784.85" font-family="Times,serif" font-size="14.00">Cambridge</text>
<polyline fill="none" stroke="black" points="1166.25,-777.65 1254.25,-777.65"/>
<text text-anchor="middle" x="1210.25" y="-760.35" font-family="Times,serif" font-size="14.00">distance: 241</text>
</g>
<!-- v11 -->
<g id="node12" class="node">
<title>v11</title>
<polygon fill="#e6e6e6" stroke="black" points="1207.69,-642.76 1207.69,-691.76 1295.69,-691.76 1295.69,-642.76 1207.69,-642.76"/>
<text text-anchor="middle" x="1251.69" y="-674.46" font-family="Times,serif" font-size="14.00">Ipswich</text>
<polyline fill="none" stroke="black" points="1207.69,-667.26 1295.69,-667.26"/>
<text text-anchor="middle" x="1251.69" y="-649.96" font-family="Times,serif" font-size="14.00">distance: 219</text>
</g>
<!-- v1&#45;&#45;v11 -->
<g id="edge3" class="edge">
<title>v1&#45;&#45;v11</title>
<path fill="none" stroke="black" d="M1219.44,-753.15C1226.31,-734.85 1235.66,-709.96 1242.52,-691.69"/>
<text text-anchor="middle" x="1211.48" y="-725.62" font-family="Times,serif" font-size="14.00">, 73km</text>
</g>
<!-- v21 -->
<g id="node22" class="node">
<title>v21</title>
<polygon fill="#e6e6e6" stroke="black" points="1042.83,-657.8 1042.83,-706.8 1153.33,-706.8 1153.33,-657.8 1042.83,-657.8"/>
<text text-anchor="middle" x="1098.08" y="-689.5" font-family="Times,serif" font-size="14.00">X: E15 x E24 (0)</text>
<polyline fill="none" stroke="black" points="1042.83,-682.3 1153.33,-682.3"/>
<text text-anchor="middle" x="1098.08" y="-665" font-family="Times,serif" font-size="14.00">distance: 201</text>
</g>
<!-- v1&#45;&#45;v21 -->
<g id="edge2" class="edge">
<title>v1&#45;&#45;v21</title>
<path fill="none" stroke="black" d="M1181.65,-753.34C1164.77,-738.99 1143.49,-720.9 1126.62,-706.56"/>
<text text-anchor="middle" x="1134.64" y="-733.15" font-family="Times,serif" font-size="14.00">, 40km</text>
</g>
<!-- v2 -->
<g id="node3" class="node">
<title>v2</title>
<polygon fill="#e6e6e6" stroke="black" points="505.92,-667.08 505.92,-716.08 609.67,-716.08 609.67,-667.08 505.92,-667.08"/>
<text text-anchor="middle" x="557.79" y="-698.78" font-family="Times,serif" font-size="14.00">X: E22 x E5 (0)</text>
<polyline fill="none" stroke="black" points="505.92,-691.58 609.67,-691.58"/>
<text text-anchor="middle" x="557.79" y="-674.28" font-family="Times,serif" font-size="14.00">distance: 404</text>
</g>
<!-- v3 -->
<g id="node4" class="node">
<title>v3</title>
<polygon fill="#e6e6e6" stroke="black" points="636.38,-476.75 636.38,-525.75 724.38,-525.75 724.38,-476.75 636.38,-476.75"/>
<text text-anchor="middle" x="680.38" y="-508.45" font-family="Times,serif" font-size="14.00">Birmingham</text>
<polyline fill="none" stroke="black" points="636.38,-501.25 724.38,-501.25"/>
<text text-anchor="middle" x="680.38" y="-483.95" font-family="Times,serif" font-size="14.00">distance: 291</text>
</g>
<!-- v2&#45;&#45;v3 -->
<g id="edge5" class="edge">
<title>v2&#45;&#45;v3</title>
<path fill="none" stroke="black" d="M573.57,-667.08C597.1,-630.54 641.16,-562.14 664.66,-525.64"/>
<text text-anchor="middle" x="596.24" y="-599.56" font-family="Times,serif" font-size="14.00">, 113km</text>
</g>
<!-- v5 -->
<g id="node6" class="node">
<title>v5</title>
<polygon fill="#e6e6e6" stroke="black" points="479.11,-424.7 479.11,-473.7 567.11,-473.7 567.11,-424.7 479.11,-424.7"/>
<text text-anchor="middle" x="523.11" y="-456.4" font-family="Times,serif" font-size="14.00">Warrington</text>
<polyline fill="none" stroke="black" points="479.11,-449.2 567.11,-449.2"/>
<text text-anchor="middle" x="523.11" y="-431.9" font-family="Times,serif" font-size="14.00">distance: 412</text>
</g>
<!-- v2&#45;&#45;v5 -->
<g id="edge7" class="edge">
<title>v2&#45;&#45;v5</title>
<path fill="none" stroke="black" d="M554.34,-667.45C547.71,-621.11 533.26,-520.13 526.6,-473.59"/>
<text text-anchor="middle" x="524.35" y="-573.72" font-family="Times,serif" font-size="14.00">, 8km</text>
</g>
<!-- v12 -->
<g id="node13" class="node">
<title>v12</title>
<polygon fill="#e6e6e6" stroke="black" points="325.72,-791.58 325.72,-840.58 429.47,-840.58 429.47,-791.58 325.72,-791.58"/>
<text text-anchor="middle" x="377.6" y="-823.28" font-family="Times,serif" font-size="14.00">X: E20 x E5 (0)</text>
<polyline fill="none" stroke="black" points="325.72,-816.08 429.47,-816.08"/>
<text text-anchor="middle" x="377.6" y="-798.78" font-family="Times,serif" font-size="14.00">distance: 409</text>
</g>
<!-- v2&#45;&#45;v12 -->
<g id="edge4" class="edge">
<title>v2&#45;&#45;v12</title>
<path fill="none" stroke="black" d="M522.62,-715.88C490.97,-737.74 444.7,-769.71 412.99,-791.62"/>
<text text-anchor="middle" x="451.68" y="-756.95" font-family="Times,serif" font-size="14.00">, 5km</text>
</g>
<!-- v25 -->
<g id="node26" class="node">
<title>v25</title>
<polygon fill="#e6e6e6" stroke="black" points="468.85,-822.83 468.85,-871.83 556.85,-871.83 556.85,-822.83 468.85,-822.83"/>
<text text-anchor="middle" x="512.85" y="-854.53" font-family="Times,serif" font-size="14.00">Manchester</text>
<polyline fill="none" stroke="black" points="468.85,-847.33 556.85,-847.33"/>
<text text-anchor="middle" x="512.85" y="-830.03" font-family="Times,serif" font-size="14.00">distance: 421</text>
</g>
<!-- v2&#45;&#45;v25 -->
<g id="edge6" class="edge">
<title>v2&#45;&#45;v25</title>
<path fill="none" stroke="black" d="M550.77,-715.91C542.35,-745.09 528.32,-793.69 519.9,-822.91"/>
<text text-anchor="middle" x="515.83" y="-772.61" font-family="Times,serif" font-size="14.00">, 17km</text>
</g>
<!-- v15 -->
<g id="node16" class="node">
<title>v15</title>
<polygon fill="#e6e6e6" stroke="black" points="819.59,-308.74 819.59,-357.74 923.34,-357.74 923.34,-308.74 819.59,-308.74"/>
<text text-anchor="middle" x="871.47" y="-340.44" font-family="Times,serif" font-size="14.00">X: E30 x E5 (0)</text>
<polyline fill="none" stroke="black" points="819.59,-333.24 923.34,-333.24"/>
<text text-anchor="middle" x="871.47" y="-315.94" font-family="Times,serif" font-size="14.00">distance: 216</text>
</g>
<!-- v3&#45;&#45;v15 -->
<g id="edge9" class="edge">
<title>v3&#45;&#45;v15</title>
<path fill="none" stroke="black" d="M708.16,-476.82C744.39,-444.96 807.4,-389.57 843.65,-357.7"/>
<text text-anchor="middle" x="753.03" y="-420.46" font-family="Times,serif" font-size="14.00">, 115km</text>
</g>
<!-- v42 -->
<g id="node43" class="node">
<title>v42</title>
<polygon fill="#e6e6e6" stroke="black" points="901.14,-511.55 901.14,-560.55 1011.64,-560.55 1011.64,-511.55 901.14,-511.55"/>
<text text-anchor="middle" x="956.39" y="-543.25" font-family="Times,serif" font-size="14.00">X: E13 x E24 (0)</text>
<polyline fill="none" stroke="black" points="901.14,-536.05 1011.64,-536.05"/>
<text text-anchor="middle" x="956.39" y="-518.75" font-family="Times,serif" font-size="14.00">distance: 225</text>
</g>
<!-- v3&#45;&#45;v42 -->
<g id="edge8" class="edge">
<title>v3&#45;&#45;v42</title>
<path fill="none" stroke="black" d="M724.11,-506.76C772.15,-512.82 849.37,-522.55 901.45,-529.12"/>
<text text-anchor="middle" x="793.28" y="-521.14" font-family="Times,serif" font-size="14.00">, 66km</text>
</g>
<!-- v4 -->
<g id="node5" class="node">
<title>v4</title>
<polygon fill="#e6e6e6" stroke="black" points="180.09,-129.91 180.09,-178.91 268.09,-178.91 268.09,-129.91 180.09,-129.91"/>
<text text-anchor="middle" x="224.09" y="-161.61" font-family="Times,serif" font-size="14.00">Swansea</text>
<polyline fill="none" stroke="black" points="180.09,-154.41 268.09,-154.41"/>
<text text-anchor="middle" x="224.09" y="-137.11" font-family="Times,serif" font-size="14.00">distance: 392</text>
</g>
<!-- v43 -->
<g id="node44" class="node">
<title>v43</title>
<polygon fill="#e6e6e6" stroke="black" points="279.03,-0.43 279.03,-49.43 367.03,-49.43 367.03,-0.43 279.03,-0.43"/>
<text text-anchor="middle" x="323.03" y="-32.13" font-family="Times,serif" font-size="14.00">Bridgend</text>
<polyline fill="none" stroke="black" points="279.03,-24.93 367.03,-24.93"/>
<text text-anchor="middle" x="323.03" y="-7.63" font-family="Times,serif" font-size="14.00">distance: 364</text>
</g>
<!-- v4&#45;&#45;v43 -->
<g id="edge11" class="edge">
<title>v4&#45;&#45;v43</title>
<path fill="none" stroke="black" d="M242.7,-130.05C260.39,-106.9 286.84,-72.28 304.5,-49.17"/>
<text text-anchor="middle" x="254.1" y="-92.81" font-family="Times,serif" font-size="14.00">, 28km</text>
</g>
<!-- v46 -->
<g id="node47" class="node">
<title>v46</title>
<polygon fill="#e6e6e6" stroke="black" points="42.65,-88.3 42.65,-137.3 130.65,-137.3 130.65,-88.3 42.65,-88.3"/>
<text text-anchor="middle" x="86.65" y="-120" font-family="Times,serif" font-size="14.00">Fishguard</text>
<polyline fill="none" stroke="black" points="42.65,-112.8 130.65,-112.8"/>
<text text-anchor="middle" x="86.65" y="-95.5" font-family="Times,serif" font-size="14.00">distance: 475</text>
</g>
<!-- v4&#45;&#45;v46 -->
<g id="edge10" class="edge">
<title>v4&#45;&#45;v46</title>
<path fill="none" stroke="black" d="M180.23,-141.13C164.36,-136.32 146.44,-130.9 130.57,-126.09"/>
<text text-anchor="middle" x="155.4" y="-120.31" font-family="Times,serif" font-size="14.00">, 83km</text>
</g>
<!-- v40 -->
<g id="node41" class="node">
<title>v40</title>
<polygon fill="#e6e6e6" stroke="black" points="318.23,-548.07 318.23,-597.07 406.23,-597.07 406.23,-548.07 318.23,-548.07"/>
<text text-anchor="middle" x="362.23" y="-579.77" font-family="Times,serif" font-size="14.00">Chester</text>
<polyline fill="none" stroke="black" points="318.23,-572.57 406.23,-572.57"/>
<text text-anchor="middle" x="362.23" y="-555.27" font-family="Times,serif" font-size="14.00">distance: 445</text>
</g>
<!-- v5&#45;&#45;v40 -->
<g id="edge12" class="edge">
<title>v5&#45;&#45;v40</title>
<path fill="none" stroke="black" d="M491.33,-473.57C463.12,-495.2 422.13,-526.63 393.95,-548.25"/>
<text text-anchor="middle" x="423.14" y="-514.11" font-family="Times,serif" font-size="14.00">, 33km</text>
</g>
<!-- v6 -->
<g id="node7" class="node">
<title>v6</title>
<polygon fill="#e6e6e6" stroke="black" points="470.24,-201.1 470.24,-250.1 573.99,-250.1 573.99,-201.1 470.24,-201.1"/>
<text text-anchor="middle" x="522.12" y="-232.8" font-family="Times,serif" font-size="14.00">Newport, Wales</text>
<polyline fill="none" stroke="black" points="470.24,-225.6 573.99,-225.6"/>
<text text-anchor="middle" x="522.12" y="-208.3" font-family="Times,serif" font-size="14.00">distance: 319</text>
</g>
<!-- v32 -->
<g id="node33" class="node">
<title>v32</title>
<polygon fill="#e6e6e6" stroke="black" points="412,-48.13 412,-97.13 500,-97.13 500,-48.13 412,-48.13"/>
<text text-anchor="middle" x="456" y="-79.83" font-family="Times,serif" font-size="14.00">Cardiff</text>
<polyline fill="none" stroke="black" points="412,-72.63 500,-72.63"/>
<text text-anchor="middle" x="456" y="-55.33" font-family="Times,serif" font-size="14.00">distance: 337</text>
</g>
<!-- v6&#45;&#45;v32 -->
<g id="edge13" class="edge">
<title>v6&#45;&#45;v32</title>
<path fill="none" stroke="black" d="M511.64,-201.36C499.3,-172.8 478.91,-125.63 466.54,-97.01"/>
<text text-anchor="middle" x="469.59" y="-152.39" font-family="Times,serif" font-size="14.00">, 18km</text>
</g>
<!-- v44 -->
<g id="node45" class="node">
<title>v44</title>
<polygon fill="#e6e6e6" stroke="black" points="690.74,-282.11 690.74,-331.11 778.74,-331.11 778.74,-282.11 690.74,-282.11"/>
<text text-anchor="middle" x="734.74" y="-313.81" font-family="Times,serif" font-size="14.00">Bristol</text>
<polyline fill="none" stroke="black" points="690.74,-306.61 778.74,-306.61"/>
<text text-anchor="middle" x="734.74" y="-289.31" font-family="Times,serif" font-size="14.00">distance: 287</text>
</g>
<!-- v6&#45;&#45;v44 -->
<g id="edge14" class="edge">
<title>v6&#45;&#45;v44</title>
<path fill="none" stroke="black" d="M573.86,-245.32C609.75,-258.99 657.03,-277.01 691.04,-289.96"/>
<text text-anchor="middle" x="612.95" y="-270.84" font-family="Times,serif" font-size="14.00">, 32km</text>
</g>
<!-- v7 -->
<g id="node8" class="node">
<title>v7</title>
<polygon fill="#e6e6e6" stroke="black" points="1440.11,-428.55 1440.11,-477.55 1528.11,-477.55 1528.11,-428.55 1440.11,-428.55"/>
<text text-anchor="middle" x="1484.11" y="-460.25" font-family="Times,serif" font-size="14.00">Harwich</text>
<polyline fill="none" stroke="black" points="1440.11,-453.05 1528.11,-453.05"/>
<text text-anchor="middle" x="1484.11" y="-435.75" font-family="Times,serif" font-size="14.00">distance: 219</text>
</g>
<!-- v28 -->
<g id="node29" class="node">
<title>v28</title>
<polygon fill="#e6e6e6" stroke="black" points="1224.45,-468.59 1224.45,-517.59 1312.45,-517.59 1312.45,-468.59 1224.45,-468.59"/>
<text text-anchor="middle" x="1268.45" y="-500.29" font-family="Times,serif" font-size="14.00">Colchester</text>
<polyline fill="none" stroke="black" points="1224.45,-493.09 1312.45,-493.09"/>
<text text-anchor="middle" x="1268.45" y="-475.79" font-family="Times,serif" font-size="14.00">distance: 193</text>
</g>
<!-- v7&#45;&#45;v28 -->
<g id="edge15" class="edge">
<title>v7&#45;&#45;v28</title>
<path fill="none" stroke="black" d="M1440.21,-461.2C1402.89,-468.13 1349.59,-478.02 1312.29,-484.95"/>
<text text-anchor="middle" x="1356.75" y="-476.27" font-family="Times,serif" font-size="14.00">, 26km</text>
</g>
<!-- v8 -->
<g id="node9" class="node">
<title>v8</title>
<polygon fill="#e6e6e6" stroke="black" points="535.04,-1134.25 535.04,-1183.25 648.54,-1183.25 648.54,-1134.25 535.04,-1134.25"/>
<text text-anchor="middle" x="591.79" y="-1165.95" font-family="Times,serif" font-size="14.00">Carlisle, Cumbria</text>
<polyline fill="none" stroke="black" points="535.04,-1158.75 648.54,-1158.75"/>
<text text-anchor="middle" x="591.79" y="-1141.45" font-family="Times,serif" font-size="14.00">distance: 600</text>
</g>
<!-- v22 -->
<g id="node23" class="node">
<title>v22</title>
<polygon fill="#e6e6e6" stroke="black" points="592.25,-1229.29 592.25,-1278.29 726,-1278.29 726,-1229.29 592.25,-1229.29"/>
<text text-anchor="middle" x="659.12" y="-1260.99" font-family="Times,serif" font-size="14.00">Newcastle upon Tyne</text>
<polyline fill="none" stroke="black" points="592.25,-1253.79 726,-1253.79"/>
<text text-anchor="middle" x="659.12" y="-1236.49" font-family="Times,serif" font-size="14.00">distance: 514</text>
</g>
<!-- v8&#45;&#45;v22 -->
<g id="edge17" class="edge">
<title>v8&#45;&#45;v22</title>
<path fill="none" stroke="black" d="M609.13,-1183.23C619.18,-1197.42 631.8,-1215.22 641.84,-1229.4"/>
<text text-anchor="middle" x="605.98" y="-1209.51" font-family="Times,serif" font-size="14.00">, 86km</text>
</g>
<!-- v27 -->
<g id="node28" class="node">
<title>v27</title>
<polygon fill="#e6e6e6" stroke="black" points="318.05,-1121.86 318.05,-1170.86 425.55,-1170.86 425.55,-1121.86 318.05,-1121.86"/>
<text text-anchor="middle" x="371.8" y="-1153.56" font-family="Times,serif" font-size="14.00">Gretna, Scotland</text>
<polyline fill="none" stroke="black" points="318.05,-1146.36 425.55,-1146.36"/>
<text text-anchor="middle" x="371.8" y="-1129.06" font-family="Times,serif" font-size="14.00">distance: 615</text>
</g>
<!-- v8&#45;&#45;v27 -->
<g id="edge16" class="edge">
<title>v8&#45;&#45;v27</title>
<path fill="none" stroke="black" d="M535.14,-1155.56C501.27,-1153.65 458.51,-1151.25 425.23,-1149.37"/>
<text text-anchor="middle" x="460.68" y="-1155.67" font-family="Times,serif" font-size="14.00">, 15km</text>
</g>
<!-- v9 -->
<g id="node10" class="node">
<title>v9</title>
<polygon fill="#e6e6e6" stroke="black" points="191.62,-1006.61 191.62,-1055.61 314.87,-1055.61 314.87,-1006.61 191.62,-1006.61"/>
<text text-anchor="middle" x="253.24" y="-1038.31" font-family="Times,serif" font-size="14.00">Preston, Lancashire</text>
<polyline fill="none" stroke="black" points="191.62,-1031.11 314.87,-1031.11"/>
<text text-anchor="middle" x="253.24" y="-1013.81" font-family="Times,serif" font-size="14.00">distance: 447</text>
</g>
<!-- v9&#45;&#45;v12 -->
<g id="edge18" class="edge">
<title>v9&#45;&#45;v12</title>
<path fill="none" stroke="black" d="M267.26,-1006.86C291.15,-965.56 339.46,-882.03 363.44,-840.57"/>
<text text-anchor="middle" x="295.85" y="-926.91" font-family="Times,serif" font-size="14.00">, 38km</text>
</g>
<!-- v30 -->
<g id="node31" class="node">
<title>v30</title>
<polygon fill="#e6e6e6" stroke="black" points="206.3,-1158.11 206.3,-1207.11 310.05,-1207.11 310.05,-1158.11 206.3,-1158.11"/>
<text text-anchor="middle" x="258.17" y="-1189.81" font-family="Times,serif" font-size="14.00">X: E18 x E5 (0)</text>
<polyline fill="none" stroke="black" points="206.3,-1182.61 310.05,-1182.61"/>
<text text-anchor="middle" x="258.17" y="-1165.31" font-family="Times,serif" font-size="14.00">distance: 594</text>
</g>
<!-- v9&#45;&#45;v30 -->
<g id="edge19" class="edge">
<title>v9&#45;&#45;v30</title>
<path fill="none" stroke="black" d="M254.03,-1055.45C254.95,-1083.72 256.46,-1130.08 257.38,-1158.33"/>
<text text-anchor="middle" x="232.83" y="-1110.09" font-family="Times,serif" font-size="14.00">, 147km</text>
</g>
<!-- v10&#45;&#45;v21 -->
<g id="edge20" class="edge">
<title>v10&#45;&#45;v21</title>
<path fill="none" stroke="black" d="M967.17,-874.97C995.58,-833.15 1053.13,-748.45 1081.5,-706.69"/>
<text text-anchor="middle" x="1001.46" y="-794.03" font-family="Times,serif" font-size="14.00">, 146km</text>
</g>
<!-- v29 -->
<g id="node30" class="node">
<title>v29</title>
<polygon fill="#e6e6e6" stroke="black" points="792.32,-881.71 792.32,-930.71 880.32,-930.71 880.32,-881.71 792.32,-881.71"/>
<text text-anchor="middle" x="836.32" y="-913.41" font-family="Times,serif" font-size="14.00">Doncaster</text>
<polyline fill="none" stroke="black" points="792.32,-906.21 880.32,-906.21"/>
<text text-anchor="middle" x="836.32" y="-888.91" font-family="Times,serif" font-size="14.00">distance: 359</text>
</g>
<!-- v10&#45;&#45;v29 -->
<g id="edge22" class="edge">
<title>v10&#45;&#45;v29</title>
<path fill="none" stroke="black" d="M895.43,-902.71C890.3,-903.02 885.14,-903.32 880.13,-903.62"/>
<text text-anchor="middle" x="887.78" y="-889.87" font-family="Times,serif" font-size="14.00">, 12km</text>
</g>
<!-- v39 -->
<g id="node40" class="node">
<title>v39</title>
<polygon fill="#e6e6e6" stroke="black" points="764.39,-1015.4 764.39,-1064.4 874.89,-1064.4 874.89,-1015.4 764.39,-1015.4"/>
<text text-anchor="middle" x="819.64" y="-1047.1" font-family="Times,serif" font-size="14.00">X: E20 x E15 (0)</text>
<polyline fill="none" stroke="black" points="764.39,-1039.9 874.89,-1039.9"/>
<text text-anchor="middle" x="819.64" y="-1022.6" font-family="Times,serif" font-size="14.00">distance: 375</text>
</g>
<!-- v10&#45;&#45;v39 -->
<g id="edge21" class="edge">
<title>v10&#45;&#45;v39</title>
<path fill="none" stroke="black" d="M927.73,-923.92C903.71,-949.7 866.1,-990.05 842.18,-1015.72"/>
<text text-anchor="middle" x="865.45" y="-973.02" font-family="Times,serif" font-size="14.00">, 28km</text>
</g>
<!-- v11&#45;&#45;v28 -->
<g id="edge24" class="edge">
<title>v11&#45;&#45;v28</title>
<path fill="none" stroke="black" d="M1254.02,-643.04C1257.21,-609.86 1262.92,-550.6 1266.11,-517.38"/>
<text text-anchor="middle" x="1240.57" y="-583.41" font-family="Times,serif" font-size="14.00">, 26km</text>
</g>
<!-- v38 -->
<g id="node39" class="node">
<title>v38</title>
<polygon fill="#e6e6e6" stroke="black" points="1409.05,-732.44 1409.05,-781.44 1497.05,-781.44 1497.05,-732.44 1409.05,-732.44"/>
<text text-anchor="middle" x="1453.05" y="-764.14" font-family="Times,serif" font-size="14.00">Felixstowe</text>
<polyline fill="none" stroke="black" points="1409.05,-756.94 1497.05,-756.94"/>
<text text-anchor="middle" x="1453.05" y="-739.64" font-family="Times,serif" font-size="14.00">distance: 237</text>
</g>
<!-- v11&#45;&#45;v38 -->
<g id="edge23" class="edge">
<title>v11&#45;&#45;v38</title>
<path fill="none" stroke="black" d="M1295.38,-686.72C1329.04,-701.71 1375.37,-722.34 1409.09,-737.36"/>
<text text-anchor="middle" x="1332.74" y="-715.24" font-family="Times,serif" font-size="14.00">, 18km</text>
</g>
<!-- v12&#45;&#45;v25 -->
<g id="edge25" class="edge">
<title>v12&#45;&#45;v25</title>
<path fill="none" stroke="black" d="M429.12,-827.98C442.26,-831.02 456.26,-834.25 468.97,-837.19"/>
<text text-anchor="middle" x="449.04" y="-819.29" font-family="Times,serif" font-size="14.00">, 17km</text>
</g>
<!-- v36 -->
<g id="node37" class="node">
<title>v36</title>
<polygon fill="#e6e6e6" stroke="black" points="128.27,-674.88 128.27,-723.88 216.27,-723.88 216.27,-674.88 128.27,-674.88"/>
<text text-anchor="middle" x="172.27" y="-706.58" font-family="Times,serif" font-size="14.00">Liverpool</text>
<polyline fill="none" stroke="black" points="128.27,-699.38 216.27,-699.38"/>
<text text-anchor="middle" x="172.27" y="-682.08" font-family="Times,serif" font-size="14.00">distance: 444</text>
</g>
<!-- v12&#45;&#45;v36 -->
<g id="edge26" class="edge">
<title>v12&#45;&#45;v36</title>
<path fill="none" stroke="black" d="M334.56,-791.61C299.51,-771.69 250.29,-743.72 215.26,-723.81"/>
<text text-anchor="middle" x="255.41" y="-760.91" font-family="Times,serif" font-size="14.00">, 35km</text>
</g>
<!-- v13 -->
<g id="node14" class="node">
<title>v13</title>
<polygon fill="#e6e6e6" stroke="black" points="987.14,-400.45 987.14,-449.45 1075.89,-449.45 1075.89,-400.45 987.14,-400.45"/>
<text text-anchor="middle" x="1031.51" y="-432.15" font-family="Times,serif" font-size="14.00">Northampton</text>
<polyline fill="none" stroke="black" points="987.14,-424.95 1075.89,-424.95"/>
<text text-anchor="middle" x="1031.51" y="-407.65" font-family="Times,serif" font-size="14.00">distance: 211</text>
</g>
<!-- v33 -->
<g id="node34" class="node">
<title>v33</title>
<polygon fill="#e6e6e6" stroke="black" points="1054.4,-465.4 1054.4,-514.4 1142.4,-514.4 1142.4,-465.4 1054.4,-465.4"/>
<text text-anchor="middle" x="1098.4" y="-497.1" font-family="Times,serif" font-size="14.00">London</text>
<polyline fill="none" stroke="black" points="1054.4,-489.9 1142.4,-489.9"/>
<text text-anchor="middle" x="1098.4" y="-472.6" font-family="Times,serif" font-size="14.00">distance: 112</text>
</g>
<!-- v13&#45;&#45;v33 -->
<g id="edge28" class="edge">
<title>v13&#45;&#45;v33</title>
<path fill="none" stroke="black" d="M1056.42,-449.14C1061.92,-454.47 1067.75,-460.13 1073.25,-465.48"/>
<text text-anchor="middle" x="1045.34" y="-460.51" font-family="Times,serif" font-size="14.00">, 99km</text>
</g>
<!-- v13&#45;&#45;v42 -->
<g id="edge27" class="edge">
<title>v13&#45;&#45;v42</title>
<path fill="none" stroke="black" d="M1015.03,-449.33C1002.5,-467.86 985.35,-493.22 972.84,-511.73"/>
<text text-anchor="middle" x="974.43" y="-483.73" font-family="Times,serif" font-size="14.00">, 14km</text>
</g>
<!-- v14 -->
<g id="node15" class="node">
<title>v14</title>
<polygon fill="#e6e6e6" stroke="black" points="699.27,-725.85 699.27,-774.85 787.27,-774.85 787.27,-725.85 699.27,-725.85"/>
<text text-anchor="middle" x="743.27" y="-757.55" font-family="Times,serif" font-size="14.00">Sheffield</text>
<polyline fill="none" stroke="black" points="699.27,-750.35 787.27,-750.35"/>
<text text-anchor="middle" x="743.27" y="-733.05" font-family="Times,serif" font-size="14.00">distance: 349</text>
</g>
<!-- v14&#45;&#45;v29 -->
<g id="edge30" class="edge">
<title>v14&#45;&#45;v29</title>
<path fill="none" stroke="black" d="M757.81,-774.7C775.24,-803.9 804.28,-852.54 821.73,-881.77"/>
<text text-anchor="middle" x="770.27" y="-831.44" font-family="Times,serif" font-size="14.00">, 28km</text>
</g>
<!-- v37 -->
<g id="node38" class="node">
<title>v37</title>
<polygon fill="#e6e6e6" stroke="black" points="831.33,-715.62 831.33,-764.62 919.33,-764.62 919.33,-715.62 831.33,-715.62"/>
<text text-anchor="middle" x="875.33" y="-747.32" font-family="Times,serif" font-size="14.00">Nottingham</text>
<polyline fill="none" stroke="black" points="831.33,-740.12 919.33,-740.12"/>
<text text-anchor="middle" x="875.33" y="-722.82" font-family="Times,serif" font-size="14.00">distance: 295</text>
</g>
<!-- v14&#45;&#45;v37 -->
<g id="edge29" class="edge">
<title>v14&#45;&#45;v37</title>
<path fill="none" stroke="black" d="M787.24,-746.94C801.5,-745.84 817.3,-744.61 831.55,-743.51"/>
<text text-anchor="middle" x="809.39" y="-731.93" font-family="Times,serif" font-size="14.00">, 54km</text>
</g>
<!-- v15&#45;&#45;v33 -->
<g id="edge32" class="edge">
<title>v15&#45;&#45;v33</title>
<path fill="none" stroke="black" d="M906.93,-357.72C949.56,-387.15 1020.67,-436.24 1063.19,-465.59"/>
<text text-anchor="middle" x="962.19" y="-414.85" font-family="Times,serif" font-size="14.00">, 104km</text>
</g>
<!-- v34 -->
<g id="node35" class="node">
<title>v34</title>
<polygon fill="#e6e6e6" stroke="black" points="901.89,-187.93 901.89,-236.93 990.64,-236.93 990.64,-187.93 901.89,-187.93"/>
<text text-anchor="middle" x="946.26" y="-219.63" font-family="Times,serif" font-size="14.00">Southampton</text>
<polyline fill="none" stroke="black" points="901.89,-212.43 990.64,-212.43"/>
<text text-anchor="middle" x="946.26" y="-195.13" font-family="Times,serif" font-size="14.00">distance: 280</text>
</g>
<!-- v15&#45;&#45;v34 -->
<g id="edge31" class="edge">
<title>v15&#45;&#45;v34</title>
<path fill="none" stroke="black" d="M886.6,-308.8C899.58,-287.84 918.18,-257.79 931.15,-236.84"/>
<text text-anchor="middle" x="889.38" y="-276.02" font-family="Times,serif" font-size="14.00">, 64km</text>
</g>
<!-- v15&#45;&#45;v44 -->
<g id="edge33" class="edge">
<title>v15&#45;&#45;v44</title>
<path fill="none" stroke="black" d="M819.78,-323.18C806.16,-320.52 791.61,-317.69 778.46,-315.13"/>
<text text-anchor="middle" x="799.12" y="-305.85" font-family="Times,serif" font-size="14.00">, 71km</text>
</g>
<!-- v16 -->
<g id="node17" class="node">
<title>v16</title>
<polygon fill="#e6e6e6" stroke="black" points="884.04,-1184.73 884.04,-1233.73 1008.04,-1233.73 1008.04,-1184.73 884.04,-1184.73"/>
<text text-anchor="middle" x="946.04" y="-1216.43" font-family="Times,serif" font-size="14.00">Kingston upon Hull</text>
<polyline fill="none" stroke="black" points="884.04,-1209.23 1008.04,-1209.23"/>
<text text-anchor="middle" x="946.04" y="-1191.93" font-family="Times,serif" font-size="14.00">distance: 425</text>
</g>
<!-- v16&#45;&#45;v39 -->
<g id="edge34" class="edge">
<title>v16&#45;&#45;v39</title>
<path fill="none" stroke="black" d="M927.93,-1184.97C903.97,-1152.87 861.97,-1096.6 837.92,-1064.39"/>
<text text-anchor="middle" x="863.43" y="-1127.88" font-family="Times,serif" font-size="14.00">, 50km</text>
</g>
<!-- v17 -->
<g id="node18" class="node">
<title>v17</title>
<polygon fill="#e6e6e6" stroke="black" points="1159.52,-249.24 1159.52,-298.24 1240.77,-298.24 1240.77,-249.24 1159.52,-249.24"/>
<text text-anchor="middle" x="1200.15" y="-280.94" font-family="Times,serif" font-size="14.00">Folkestone</text>
<polyline fill="none" stroke="black" points="1159.52,-273.74 1240.77,-273.74"/>
<text text-anchor="middle" x="1200.15" y="-256.44" font-family="Times,serif" font-size="14.00">distance: 14</text>
</g>
<!-- v26 -->
<g id="node27" class="node">
<title>v26</title>
<polygon fill="#e6e6e6" stroke="black" points="1181.46,-106.62 1181.46,-155.62 1255.96,-155.62 1255.96,-106.62 1181.46,-106.62"/>
<text text-anchor="middle" x="1218.71" y="-138.32" font-family="Times,serif" font-size="14.00">Dover</text>
<polyline fill="none" stroke="black" points="1181.46,-131.12 1255.96,-131.12"/>
<text text-anchor="middle" x="1218.71" y="-113.82" font-family="Times,serif" font-size="14.00">distance: 0</text>
</g>
<!-- v17&#45;&#45;v26 -->
<g id="edge36" class="edge">
<title>v17&#45;&#45;v26</title>
<path fill="none" stroke="black" d="M1203.3,-249.54C1206.71,-223.32 1212.12,-181.71 1215.54,-155.43"/>
<text text-anchor="middle" x="1189.92" y="-205.69" font-family="Times,serif" font-size="14.00">, 14km</text>
</g>
<!-- v17&#45;&#45;v33 -->
<g id="edge35" class="edge">
<title>v17&#45;&#45;v33</title>
<path fill="none" stroke="black" d="M1188.68,-298.11C1169.08,-339.74 1129.4,-424.04 1109.84,-465.61"/>
<text text-anchor="middle" x="1129.76" y="-385.06" font-family="Times,serif" font-size="14.00">, 98km</text>
</g>
<!-- v18 -->
<g id="node19" class="node">
<title>v18</title>
<polygon fill="#e6e6e6" stroke="black" points="514.67,-1363.49 514.67,-1412.49 602.67,-1412.49 602.67,-1363.49 514.67,-1363.49"/>
<text text-anchor="middle" x="558.67" y="-1395.19" font-family="Times,serif" font-size="14.00">Edinburgh</text>
<polyline fill="none" stroke="black" points="514.67,-1387.99 602.67,-1387.99"/>
<text text-anchor="middle" x="558.67" y="-1370.69" font-family="Times,serif" font-size="14.00">distance: 662</text>
</g>
<!-- v20 -->
<g id="node21" class="node">
<title>v20</title>
<polygon fill="#e6e6e6" stroke="black" points="266.67,-1342.72 266.67,-1391.72 354.67,-1391.72 354.67,-1342.72 266.67,-1342.72"/>
<text text-anchor="middle" x="310.67" y="-1374.42" font-family="Times,serif" font-size="14.00">Glasgow</text>
<polyline fill="none" stroke="black" points="266.67,-1367.22 354.67,-1367.22"/>
<text text-anchor="middle" x="310.67" y="-1349.92" font-family="Times,serif" font-size="14.00">distance: 702</text>
</g>
<!-- v18&#45;&#45;v20 -->
<g id="edge39" class="edge">
<title>v18&#45;&#45;v20</title>
<path fill="none" stroke="black" d="M514.91,-1384.33C469.71,-1380.54 399.6,-1374.67 354.42,-1370.89"/>
<text text-anchor="middle" x="415.16" y="-1380.81" font-family="Times,serif" font-size="14.00">, 68km</text>
</g>
<!-- v18&#45;&#45;v22 -->
<g id="edge37" class="edge">
<title>v18&#45;&#45;v22</title>
<path fill="none" stroke="black" d="M576.86,-1363.69C595.07,-1339.37 622.91,-1302.17 641.07,-1277.91"/>
<text text-anchor="middle" x="586.09" y="-1324" font-family="Times,serif" font-size="14.00">, 148km</text>
</g>
<!-- v41 -->
<g id="node42" class="node">
<title>v41</title>
<polygon fill="#e6e6e6" stroke="black" points="436.55,-1518.89 436.55,-1567.89 535.8,-1567.89 535.8,-1518.89 436.55,-1518.89"/>
<text text-anchor="middle" x="486.18" y="-1550.59" font-family="Times,serif" font-size="14.00">Perth, Scotland</text>
<polyline fill="none" stroke="black" points="436.55,-1543.39 535.8,-1543.39"/>
<text text-anchor="middle" x="486.18" y="-1526.09" font-family="Times,serif" font-size="14.00">distance: 714</text>
</g>
<!-- v18&#45;&#45;v41 -->
<g id="edge38" class="edge">
<title>v18&#45;&#45;v41</title>
<path fill="none" stroke="black" d="M547.35,-1412.27C533.77,-1441.38 511.14,-1489.87 497.55,-1519.02"/>
<text text-anchor="middle" x="502.95" y="-1468.85" font-family="Times,serif" font-size="14.00">, 52km</text>
</g>
<!-- v19 -->
<g id="node20" class="node">
<title>v19</title>
<polygon fill="#e6e6e6" stroke="black" points="263.8,-447.88 263.8,-496.88 351.8,-496.88 351.8,-447.88 263.8,-447.88"/>
<text text-anchor="middle" x="307.8" y="-479.58" font-family="Times,serif" font-size="14.00">Holyhead</text>
<polyline fill="none" stroke="black" points="263.8,-472.38 351.8,-472.38"/>
<text text-anchor="middle" x="307.8" y="-455.08" font-family="Times,serif" font-size="14.00">distance: 545</text>
</g>
<!-- v19&#45;&#45;v40 -->
<g id="edge40" class="edge">
<title>v19&#45;&#45;v40</title>
<path fill="none" stroke="black" d="M320.98,-496.63C329.47,-512.27 340.48,-532.53 348.99,-548.19"/>
<text text-anchor="middle" x="312.11" y="-525.61" font-family="Times,serif" font-size="14.00">, 100km</text>
</g>
<!-- v24 -->
<g id="node25" class="node">
<title>v24</title>
<polygon fill="#e6e6e6" stroke="black" points="209.02,-1465.87 209.02,-1514.87 297.02,-1514.87 297.02,-1465.87 209.02,-1465.87"/>
<text text-anchor="middle" x="253.02" y="-1497.57" font-family="Times,serif" font-size="14.00">Greenock</text>
<polyline fill="none" stroke="black" points="209.02,-1490.37 297.02,-1490.37"/>
<text text-anchor="middle" x="253.02" y="-1473.07" font-family="Times,serif" font-size="14.00">distance: 764</text>
</g>
<!-- v20&#45;&#45;v24 -->
<g id="edge42" class="edge">
<title>v20&#45;&#45;v24</title>
<path fill="none" stroke="black" d="M299.28,-1391.55C289.17,-1413.14 274.48,-1444.52 264.38,-1466.09"/>
<text text-anchor="middle" x="262.33" y="-1432.02" font-family="Times,serif" font-size="14.00">, 34km</text>
</g>
<!-- v20&#45;&#45;v30 -->
<g id="edge41" class="edge">
<title>v20&#45;&#45;v30</title>
<path fill="none" stroke="black" d="M303.81,-1343.09C293.77,-1307.8 275.2,-1242.5 265.12,-1207.05"/>
<text text-anchor="middle" x="261.59" y="-1278.27" font-family="Times,serif" font-size="14.00">, 108km</text>
</g>
<!-- v21&#45;&#45;v33 -->
<g id="edge44" class="edge">
<title>v21&#45;&#45;v33</title>
<path fill="none" stroke="black" d="M1098.12,-657.93C1098.18,-621.02 1098.3,-551.34 1098.36,-514.37"/>
<text text-anchor="middle" x="1078.74" y="-589.35" font-family="Times,serif" font-size="14.00">, 89km</text>
</g>
<!-- v21&#45;&#45;v42 -->
<g id="edge43" class="edge">
<title>v21&#45;&#45;v42</title>
<path fill="none" stroke="black" d="M1074.36,-657.82C1048.05,-630.66 1005.86,-587.11 979.71,-560.12"/>
<text text-anchor="middle" x="1007.54" y="-612.17" font-family="Times,serif" font-size="14.00">, 38km</text>
</g>
<!-- v22&#45;&#45;v39 -->
<g id="edge45" class="edge">
<title>v22&#45;&#45;v39</title>
<path fill="none" stroke="black" d="M677.22,-1229.67C708.05,-1188.59 770.41,-1105.5 801.36,-1064.26"/>
<text text-anchor="middle" x="716.41" y="-1150.16" font-family="Times,serif" font-size="14.00">, 139km</text>
</g>
<!-- v23 -->
<g id="node24" class="node">
<title>v23</title>
<polygon fill="#e6e6e6" stroke="black" points="-0.14,-1083.33 -0.14,-1132.33 87.86,-1132.33 87.86,-1083.33 -0.14,-1083.33"/>
<text text-anchor="middle" x="43.86" y="-1115.03" font-family="Times,serif" font-size="14.00">Stranraer</text>
<polyline fill="none" stroke="black" points="-0.14,-1107.83 87.86,-1107.83"/>
<text text-anchor="middle" x="43.86" y="-1090.53" font-family="Times,serif" font-size="14.00">distance: 687</text>
</g>
<!-- v23&#45;&#45;v30 -->
<g id="edge46" class="edge">
<title>v23&#45;&#45;v30</title>
<path fill="none" stroke="black" d="M87.75,-1123.15C122.16,-1135.15 170.13,-1151.89 206.42,-1164.55"/>
<text text-anchor="middle" x="127.58" y="-1147.05" font-family="Times,serif" font-size="14.00">, 93km</text>
</g>
<!-- v31 -->
<g id="node32" class="node">
<title>v31</title>
<polygon fill="#e6e6e6" stroke="black" points="624.13,-987.12 624.13,-1036.12 712.13,-1036.12 712.13,-987.12 624.13,-987.12"/>
<text text-anchor="middle" x="668.13" y="-1018.82" font-family="Times,serif" font-size="14.00">Leeds</text>
<polyline fill="none" stroke="black" points="624.13,-1011.62 712.13,-1011.62"/>
<text text-anchor="middle" x="668.13" y="-994.32" font-family="Times,serif" font-size="14.00">distance: 401</text>
</g>
<!-- v25&#45;&#45;v31 -->
<g id="edge47" class="edge">
<title>v25&#45;&#45;v31</title>
<path fill="none" stroke="black" d="M535.76,-871.57C565.12,-902.63 615.72,-956.17 645.13,-987.28"/>
<text text-anchor="middle" x="570.94" y="-932.63" font-family="Times,serif" font-size="14.00">, 59km</text>
</g>
<!-- v27&#45;&#45;v30 -->
<g id="edge48" class="edge">
<title>v27&#45;&#45;v30</title>
<path fill="none" stroke="black" d="M318.31,-1163.43C315.55,-1164.31 312.78,-1165.19 310.02,-1166.07"/>
<text text-anchor="middle" x="294.67" y="-1151.45" font-family="Times,serif" font-size="14.00">, 34km</text>
</g>
<!-- v28&#45;&#45;v33 -->
<g id="edge49" class="edge">
<title>v28&#45;&#45;v33</title>
<path fill="none" stroke="black" d="M1224.66,-492.27C1199.37,-491.79 1167.66,-491.2 1142.34,-490.72"/>
<text text-anchor="middle" x="1164" y="-494.69" font-family="Times,serif" font-size="14.00">, 81km</text>
</g>
<!-- v29&#45;&#45;v31 -->
<g id="edge50" class="edge">
<title>v29&#45;&#45;v31</title>
<path fill="none" stroke="black" d="M797.31,-930.66C770.24,-947.63 734.31,-970.15 707.22,-987.12"/>
<text text-anchor="middle" x="732.77" y="-962.09" font-family="Times,serif" font-size="14.00">, 42km</text>
</g>
<!-- v31&#45;&#45;v39 -->
<g id="edge51" class="edge">
<title>v31&#45;&#45;v39</title>
<path fill="none" stroke="black" d="M711.95,-1019.8C728.38,-1022.87 747.27,-1026.39 764.59,-1029.63"/>
<text text-anchor="middle" x="738.27" y="-1011.41" font-family="Times,serif" font-size="14.00">, 31km</text>
</g>
<!-- v32&#45;&#45;v43 -->
<g id="edge52" class="edge">
<title>v32&#45;&#45;v43</title>
<path fill="none" stroke="black" d="M412.09,-56.88C397.57,-51.67 381.41,-45.87 366.89,-40.66"/>
<text text-anchor="middle" x="389.49" y="-35.47" font-family="Times,serif" font-size="14.00">, 27km</text>
</g>
<!-- v35 -->
<g id="node36" class="node">
<title>v35</title>
<polygon fill="#e6e6e6" stroke="black" points="756.09,-610.48 756.09,-659.48 844.09,-659.48 844.09,-610.48 756.09,-610.48"/>
<text text-anchor="middle" x="800.09" y="-642.18" font-family="Times,serif" font-size="14.00">Leicester</text>
<polyline fill="none" stroke="black" points="756.09,-634.98 844.09,-634.98"/>
<text text-anchor="middle" x="800.09" y="-617.68" font-family="Times,serif" font-size="14.00">distance: 259</text>
</g>
<!-- v35&#45;&#45;v37 -->
<g id="edge54" class="edge">
<title>v35&#45;&#45;v37</title>
<path fill="none" stroke="black" d="M817.54,-659.37C829.69,-676.35 845.84,-698.91 857.97,-715.87"/>
<text text-anchor="middle" x="818.26" y="-690.82" font-family="Times,serif" font-size="14.00">, 36km</text>
</g>
<!-- v35&#45;&#45;v42 -->
<g id="edge53" class="edge">
<title>v35&#45;&#45;v42</title>
<path fill="none" stroke="black" d="M838.72,-610.53C862.86,-595.25 893.82,-575.65 917.93,-560.39"/>
<text text-anchor="middle" x="858.83" y="-588.66" font-family="Times,serif" font-size="14.00">, 34km</text>
</g>
<!-- v45 -->
<g id="node46" class="node">
<title>v45</title>
<polygon fill="#e6e6e6" stroke="black" points="320.97,-1727.4 320.97,-1776.4 408.97,-1776.4 408.97,-1727.4 320.97,-1727.4"/>
<text text-anchor="middle" x="364.97" y="-1759.1" font-family="Times,serif" font-size="14.00">Inverness</text>
<polyline fill="none" stroke="black" points="320.97,-1751.9 408.97,-1751.9"/>
<text text-anchor="middle" x="364.97" y="-1734.6" font-family="Times,serif" font-size="14.00">distance: 845</text>
</g>
<!-- v41&#45;&#45;v45 -->
<g id="edge55" class="edge">
<title>v41&#45;&#45;v45</title>
<path fill="none" stroke="black" d="M472.04,-1567.71C448.74,-1607.78 402.57,-1687.22 379.21,-1727.4"/>
<text text-anchor="middle" x="402.75" y="-1650.76" font-family="Times,serif" font-size="14.00">, 131km</text>
</g>
</g>
</svg>
